<mxfile host="app.diagrams.net" modified="2022-09-14T03:53:38.841Z" agent="5.0 (Macintosh; Intel Mac OS X 10_15_7) AppleWebKit/537.36 (KHTML, like Gecko) Chrome/105.0.0.0 Safari/537.36" etag="8bNLpeOxuDFxyjSMVh2l" version="20.2.2" type="github">
  <diagram id="RmdAnYv_qnf6MFAfO6As" name="第 1 页">
    <mxGraphModel dx="1343" dy="739" grid="1" gridSize="10" guides="1" tooltips="1" connect="1" arrows="1" fold="1" page="1" pageScale="1" pageWidth="827" pageHeight="1169" math="0" shadow="0">
      <root>
        <mxCell id="0" />
        <mxCell id="1" parent="0" />
        <mxCell id="4wXb9z_P3IIAd_-NqeZl-2" value="User" style="shape=umlLifeline;perimeter=lifelinePerimeter;whiteSpace=wrap;html=1;container=1;collapsible=0;recursiveResize=0;outlineConnect=0;" vertex="1" parent="1">
          <mxGeometry x="170" y="110" width="100" height="380" as="geometry" />
        </mxCell>
        <mxCell id="4wXb9z_P3IIAd_-NqeZl-3" value="&lt;span style=&quot;color: rgb(50, 50, 50); font-family: 微软雅黑; font-size: 13px; background-color: rgba(255, 255, 255, 0.01);&quot;&gt;用户查看/加入活动&lt;/span&gt;" style="text;html=1;strokeColor=none;fillColor=none;align=center;verticalAlign=middle;whiteSpace=wrap;rounded=0;" vertex="1" parent="1">
          <mxGeometry x="40" y="60" width="130" height="30" as="geometry" />
        </mxCell>
        <mxCell id="4wXb9z_P3IIAd_-NqeZl-4" value="" style="shape=umlActor;verticalLabelPosition=bottom;verticalAlign=top;html=1;" vertex="1" parent="1">
          <mxGeometry x="215" y="55" width="20" height="40" as="geometry" />
        </mxCell>
        <mxCell id="4wXb9z_P3IIAd_-NqeZl-5" value="Event" style="shape=umlLifeline;perimeter=lifelinePerimeter;whiteSpace=wrap;html=1;container=1;collapsible=0;recursiveResize=0;outlineConnect=0;" vertex="1" parent="1">
          <mxGeometry x="400" y="110" width="100" height="380" as="geometry" />
        </mxCell>
        <mxCell id="4wXb9z_P3IIAd_-NqeZl-11" value="" style="html=1;points=[];perimeter=orthogonalPerimeter;" vertex="1" parent="4wXb9z_P3IIAd_-NqeZl-5">
          <mxGeometry x="50.5" y="80" width="10" height="40" as="geometry" />
        </mxCell>
        <mxCell id="4wXb9z_P3IIAd_-NqeZl-14" value="" style="html=1;points=[];perimeter=orthogonalPerimeter;" vertex="1" parent="4wXb9z_P3IIAd_-NqeZl-5">
          <mxGeometry x="45" y="160" width="10" height="220" as="geometry" />
        </mxCell>
        <mxCell id="4wXb9z_P3IIAd_-NqeZl-6" value="EventTask" style="shape=umlLifeline;perimeter=lifelinePerimeter;whiteSpace=wrap;html=1;container=1;collapsible=0;recursiveResize=0;outlineConnect=0;" vertex="1" parent="1">
          <mxGeometry x="815" y="110" width="100" height="380" as="geometry" />
        </mxCell>
        <mxCell id="4wXb9z_P3IIAd_-NqeZl-17" value="" style="html=1;points=[];perimeter=orthogonalPerimeter;" vertex="1" parent="4wXb9z_P3IIAd_-NqeZl-6">
          <mxGeometry x="45" y="230" width="10" height="150" as="geometry" />
        </mxCell>
        <mxCell id="4wXb9z_P3IIAd_-NqeZl-31" value="" style="html=1;points=[];perimeter=orthogonalPerimeter;" vertex="1" parent="4wXb9z_P3IIAd_-NqeZl-6">
          <mxGeometry x="55" y="240" width="10" height="50" as="geometry" />
        </mxCell>
        <mxCell id="4wXb9z_P3IIAd_-NqeZl-35" value="" style="html=1;points=[];perimeter=orthogonalPerimeter;" vertex="1" parent="4wXb9z_P3IIAd_-NqeZl-6">
          <mxGeometry x="55" y="330" width="10" height="40" as="geometry" />
        </mxCell>
        <mxCell id="4wXb9z_P3IIAd_-NqeZl-36" value="invitation task" style="edgeStyle=orthogonalEdgeStyle;html=1;align=left;spacingLeft=2;endArrow=block;rounded=0;entryX=1;entryY=0;" edge="1" target="4wXb9z_P3IIAd_-NqeZl-35" parent="4wXb9z_P3IIAd_-NqeZl-6" source="4wXb9z_P3IIAd_-NqeZl-17">
          <mxGeometry relative="1" as="geometry">
            <mxPoint x="70" y="290" as="sourcePoint" />
            <Array as="points">
              <mxPoint x="100" y="310" />
              <mxPoint x="100" y="330" />
            </Array>
          </mxGeometry>
        </mxCell>
        <mxCell id="4wXb9z_P3IIAd_-NqeZl-7" value="UserTask" style="shape=umlLifeline;perimeter=lifelinePerimeter;whiteSpace=wrap;html=1;container=1;collapsible=0;recursiveResize=0;outlineConnect=0;" vertex="1" parent="1">
          <mxGeometry x="1050" y="110" width="100" height="320" as="geometry" />
        </mxCell>
        <mxCell id="4wXb9z_P3IIAd_-NqeZl-28" value="" style="html=1;points=[];perimeter=orthogonalPerimeter;" vertex="1" parent="4wXb9z_P3IIAd_-NqeZl-7">
          <mxGeometry x="45" y="250" width="10" height="40" as="geometry" />
        </mxCell>
        <mxCell id="4wXb9z_P3IIAd_-NqeZl-12" value="is join?" style="html=1;verticalAlign=bottom;endArrow=block;entryX=0;entryY=0;rounded=0;" edge="1" target="4wXb9z_P3IIAd_-NqeZl-11" parent="1" source="4wXb9z_P3IIAd_-NqeZl-2">
          <mxGeometry relative="1" as="geometry">
            <mxPoint x="247.5" y="190.0000000000001" as="sourcePoint" />
          </mxGeometry>
        </mxCell>
        <mxCell id="4wXb9z_P3IIAd_-NqeZl-13" value="return" style="html=1;verticalAlign=bottom;endArrow=open;dashed=1;endSize=8;exitX=0;exitY=0.95;rounded=0;" edge="1" source="4wXb9z_P3IIAd_-NqeZl-11" parent="1" target="4wXb9z_P3IIAd_-NqeZl-2">
          <mxGeometry relative="1" as="geometry">
            <mxPoint x="247.5" y="228" as="targetPoint" />
            <Array as="points" />
          </mxGeometry>
        </mxCell>
        <mxCell id="4wXb9z_P3IIAd_-NqeZl-15" value="join" style="html=1;verticalAlign=bottom;endArrow=block;entryX=0;entryY=0;rounded=0;" edge="1" target="4wXb9z_P3IIAd_-NqeZl-14" parent="1" source="4wXb9z_P3IIAd_-NqeZl-2">
          <mxGeometry relative="1" as="geometry">
            <mxPoint x="375" y="270" as="sourcePoint" />
          </mxGeometry>
        </mxCell>
        <mxCell id="4wXb9z_P3IIAd_-NqeZl-16" value="return" style="html=1;verticalAlign=bottom;endArrow=open;dashed=1;endSize=8;exitX=0;exitY=0.95;rounded=0;" edge="1" source="4wXb9z_P3IIAd_-NqeZl-14" parent="1" target="4wXb9z_P3IIAd_-NqeZl-2">
          <mxGeometry relative="1" as="geometry">
            <mxPoint x="375" y="346" as="targetPoint" />
          </mxGeometry>
        </mxCell>
        <mxCell id="4wXb9z_P3IIAd_-NqeZl-24" value="UserEvent" style="shape=umlLifeline;perimeter=lifelinePerimeter;whiteSpace=wrap;html=1;container=1;collapsible=0;recursiveResize=0;outlineConnect=0;" vertex="1" parent="1">
          <mxGeometry x="600" y="110" width="100" height="350" as="geometry" />
        </mxCell>
        <mxCell id="4wXb9z_P3IIAd_-NqeZl-25" value="" style="html=1;points=[];perimeter=orthogonalPerimeter;" vertex="1" parent="4wXb9z_P3IIAd_-NqeZl-24">
          <mxGeometry x="45" y="170" width="10" height="30" as="geometry" />
        </mxCell>
        <mxCell id="4wXb9z_P3IIAd_-NqeZl-26" value="user join event" style="html=1;verticalAlign=bottom;endArrow=block;rounded=0;exitX=0.854;exitY=0.042;exitDx=0;exitDy=0;exitPerimeter=0;" edge="1" target="4wXb9z_P3IIAd_-NqeZl-25" parent="1" source="4wXb9z_P3IIAd_-NqeZl-14">
          <mxGeometry relative="1" as="geometry">
            <mxPoint x="575" y="280" as="sourcePoint" />
          </mxGeometry>
        </mxCell>
        <mxCell id="4wXb9z_P3IIAd_-NqeZl-27" value="return" style="html=1;verticalAlign=bottom;endArrow=open;dashed=1;endSize=8;exitX=0;exitY=0.95;rounded=0;entryX=0.985;entryY=0.178;entryDx=0;entryDy=0;entryPerimeter=0;" edge="1" source="4wXb9z_P3IIAd_-NqeZl-25" parent="1" target="4wXb9z_P3IIAd_-NqeZl-14">
          <mxGeometry relative="1" as="geometry">
            <mxPoint x="575" y="356" as="targetPoint" />
          </mxGeometry>
        </mxCell>
        <mxCell id="4wXb9z_P3IIAd_-NqeZl-18" value="join normal tasks" style="html=1;verticalAlign=bottom;endArrow=block;entryX=0;entryY=0;rounded=0;" edge="1" target="4wXb9z_P3IIAd_-NqeZl-17" parent="1" source="4wXb9z_P3IIAd_-NqeZl-14">
          <mxGeometry relative="1" as="geometry">
            <mxPoint x="790" y="290" as="sourcePoint" />
          </mxGeometry>
        </mxCell>
        <mxCell id="4wXb9z_P3IIAd_-NqeZl-19" value="return" style="html=1;verticalAlign=bottom;endArrow=open;dashed=1;endSize=8;exitX=-0.046;exitY=0.955;rounded=0;exitDx=0;exitDy=0;exitPerimeter=0;" edge="1" source="4wXb9z_P3IIAd_-NqeZl-17" parent="1" target="4wXb9z_P3IIAd_-NqeZl-5">
          <mxGeometry relative="1" as="geometry">
            <mxPoint x="790" y="366" as="targetPoint" />
          </mxGeometry>
        </mxCell>
        <mxCell id="4wXb9z_P3IIAd_-NqeZl-29" value="create/update user tasks" style="html=1;verticalAlign=bottom;endArrow=block;entryX=0;entryY=0;rounded=0;exitX=0.892;exitY=0.197;exitDx=0;exitDy=0;exitPerimeter=0;" edge="1" target="4wXb9z_P3IIAd_-NqeZl-28" parent="1" source="4wXb9z_P3IIAd_-NqeZl-31">
          <mxGeometry relative="1" as="geometry">
            <mxPoint x="875" y="370" as="sourcePoint" />
          </mxGeometry>
        </mxCell>
        <mxCell id="4wXb9z_P3IIAd_-NqeZl-30" value="return" style="html=1;verticalAlign=bottom;endArrow=open;dashed=1;endSize=8;exitX=0.077;exitY=0.665;rounded=0;entryX=1.017;entryY=0.741;entryDx=0;entryDy=0;entryPerimeter=0;exitDx=0;exitDy=0;exitPerimeter=0;" edge="1" source="4wXb9z_P3IIAd_-NqeZl-28" parent="1" target="4wXb9z_P3IIAd_-NqeZl-31">
          <mxGeometry relative="1" as="geometry">
            <mxPoint x="1050" y="426" as="targetPoint" />
          </mxGeometry>
        </mxCell>
        <mxCell id="4wXb9z_P3IIAd_-NqeZl-38" value="&lt;meta charset=&quot;utf-8&quot;&gt;&lt;span style=&quot;color: rgb(50, 50, 50); font-family: 微软雅黑; font-size: 13px; font-style: normal; font-variant-ligatures: normal; font-variant-caps: normal; font-weight: 400; letter-spacing: normal; orphans: 2; text-align: center; text-indent: 0px; text-transform: none; widows: 2; word-spacing: 0px; -webkit-text-stroke-width: 0px; background-color: rgba(255, 255, 255, 0.01); text-decoration-thickness: initial; text-decoration-style: initial; text-decoration-color: initial; float: none; display: inline !important;&quot;&gt;用户完成普通活动任务&lt;/span&gt;" style="text;html=1;strokeColor=none;fillColor=none;align=center;verticalAlign=middle;whiteSpace=wrap;rounded=0;" vertex="1" parent="1">
          <mxGeometry x="40" y="572" width="150" height="25" as="geometry" />
        </mxCell>
        <mxCell id="4wXb9z_P3IIAd_-NqeZl-39" value="User" style="shape=umlLifeline;perimeter=lifelinePerimeter;whiteSpace=wrap;html=1;container=1;collapsible=0;recursiveResize=0;outlineConnect=0;" vertex="1" parent="1">
          <mxGeometry x="170" y="640" width="100" height="440" as="geometry" />
        </mxCell>
        <mxCell id="4wXb9z_P3IIAd_-NqeZl-40" value="" style="shape=umlActor;verticalLabelPosition=bottom;verticalAlign=top;html=1;" vertex="1" parent="1">
          <mxGeometry x="210" y="585" width="20" height="40" as="geometry" />
        </mxCell>
        <mxCell id="4wXb9z_P3IIAd_-NqeZl-41" value="DailyTask" style="shape=umlLifeline;perimeter=lifelinePerimeter;whiteSpace=wrap;html=1;container=1;collapsible=0;recursiveResize=0;outlineConnect=0;" vertex="1" parent="1">
          <mxGeometry x="380" y="640" width="100" height="440" as="geometry" />
        </mxCell>
        <mxCell id="4wXb9z_P3IIAd_-NqeZl-45" value="" style="html=1;points=[];perimeter=orthogonalPerimeter;" vertex="1" parent="4wXb9z_P3IIAd_-NqeZl-41">
          <mxGeometry x="45" y="110" width="10" height="180" as="geometry" />
        </mxCell>
        <mxCell id="4wXb9z_P3IIAd_-NqeZl-48" value="" style="html=1;points=[];perimeter=orthogonalPerimeter;" vertex="1" parent="4wXb9z_P3IIAd_-NqeZl-41">
          <mxGeometry x="50" y="140" width="10" height="40" as="geometry" />
        </mxCell>
        <mxCell id="4wXb9z_P3IIAd_-NqeZl-49" value="has daily task?" style="edgeStyle=orthogonalEdgeStyle;html=1;align=left;spacingLeft=2;endArrow=block;rounded=0;entryX=1;entryY=0;" edge="1" target="4wXb9z_P3IIAd_-NqeZl-48" parent="4wXb9z_P3IIAd_-NqeZl-41">
          <mxGeometry relative="1" as="geometry">
            <mxPoint x="55" y="120" as="sourcePoint" />
            <Array as="points">
              <mxPoint x="85" y="120" />
            </Array>
          </mxGeometry>
        </mxCell>
        <mxCell id="4wXb9z_P3IIAd_-NqeZl-42" value="UserTask" style="shape=umlLifeline;perimeter=lifelinePerimeter;whiteSpace=wrap;html=1;container=1;collapsible=0;recursiveResize=0;outlineConnect=0;" vertex="1" parent="1">
          <mxGeometry x="580" y="640" width="100" height="300" as="geometry" />
        </mxCell>
        <mxCell id="4wXb9z_P3IIAd_-NqeZl-50" value="" style="html=1;points=[];perimeter=orthogonalPerimeter;" vertex="1" parent="4wXb9z_P3IIAd_-NqeZl-42">
          <mxGeometry x="45" y="190" width="10" height="30" as="geometry" />
        </mxCell>
        <mxCell id="4wXb9z_P3IIAd_-NqeZl-43" value="EventTask" style="shape=umlLifeline;perimeter=lifelinePerimeter;whiteSpace=wrap;html=1;container=1;collapsible=0;recursiveResize=0;outlineConnect=0;" vertex="1" parent="1">
          <mxGeometry x="790" y="640" width="100" height="300" as="geometry" />
        </mxCell>
        <mxCell id="4wXb9z_P3IIAd_-NqeZl-54" value="" style="html=1;points=[];perimeter=orthogonalPerimeter;" vertex="1" parent="4wXb9z_P3IIAd_-NqeZl-43">
          <mxGeometry x="45" y="240" width="10" height="30" as="geometry" />
        </mxCell>
        <mxCell id="4wXb9z_P3IIAd_-NqeZl-44" value="PointService" style="shape=umlLifeline;perimeter=lifelinePerimeter;whiteSpace=wrap;html=1;container=1;collapsible=0;recursiveResize=0;outlineConnect=0;" vertex="1" parent="1">
          <mxGeometry x="1050" y="640" width="100" height="440" as="geometry" />
        </mxCell>
        <mxCell id="4wXb9z_P3IIAd_-NqeZl-60" value="" style="html=1;points=[];perimeter=orthogonalPerimeter;" vertex="1" parent="4wXb9z_P3IIAd_-NqeZl-44">
          <mxGeometry x="45" y="350" width="10" height="50" as="geometry" />
        </mxCell>
        <mxCell id="4wXb9z_P3IIAd_-NqeZl-46" value="my tasks" style="html=1;verticalAlign=bottom;endArrow=block;entryX=0;entryY=0;rounded=0;" edge="1" target="4wXb9z_P3IIAd_-NqeZl-45" parent="1" source="4wXb9z_P3IIAd_-NqeZl-39">
          <mxGeometry relative="1" as="geometry">
            <mxPoint x="355" y="750" as="sourcePoint" />
          </mxGeometry>
        </mxCell>
        <mxCell id="4wXb9z_P3IIAd_-NqeZl-47" value="return" style="html=1;verticalAlign=bottom;endArrow=open;dashed=1;endSize=8;exitX=0;exitY=0.95;rounded=0;" edge="1" source="4wXb9z_P3IIAd_-NqeZl-45" parent="1" target="4wXb9z_P3IIAd_-NqeZl-39">
          <mxGeometry relative="1" as="geometry">
            <mxPoint x="355" y="826" as="targetPoint" />
          </mxGeometry>
        </mxCell>
        <mxCell id="4wXb9z_P3IIAd_-NqeZl-51" value="create by user task" style="html=1;verticalAlign=bottom;endArrow=block;entryX=0;entryY=0;rounded=0;" edge="1" target="4wXb9z_P3IIAd_-NqeZl-50" parent="1" source="4wXb9z_P3IIAd_-NqeZl-45">
          <mxGeometry relative="1" as="geometry">
            <mxPoint x="450" y="830" as="sourcePoint" />
          </mxGeometry>
        </mxCell>
        <mxCell id="4wXb9z_P3IIAd_-NqeZl-52" value="return" style="html=1;verticalAlign=bottom;endArrow=open;dashed=1;endSize=8;exitX=0;exitY=0.95;rounded=0;" edge="1" source="4wXb9z_P3IIAd_-NqeZl-50" parent="1" target="4wXb9z_P3IIAd_-NqeZl-45">
          <mxGeometry relative="1" as="geometry">
            <mxPoint x="555" y="906" as="targetPoint" />
          </mxGeometry>
        </mxCell>
        <mxCell id="4wXb9z_P3IIAd_-NqeZl-55" value="daily task merge event task info" style="html=1;verticalAlign=bottom;endArrow=block;entryX=0;entryY=0;rounded=0;" edge="1" parent="1" target="4wXb9z_P3IIAd_-NqeZl-54" source="4wXb9z_P3IIAd_-NqeZl-45">
          <mxGeometry relative="1" as="geometry">
            <mxPoint x="645" y="880" as="sourcePoint" />
          </mxGeometry>
        </mxCell>
        <mxCell id="4wXb9z_P3IIAd_-NqeZl-56" value="return" style="html=1;verticalAlign=bottom;endArrow=open;dashed=1;endSize=8;exitX=0;exitY=0.95;rounded=0;" edge="1" parent="1" source="4wXb9z_P3IIAd_-NqeZl-54" target="4wXb9z_P3IIAd_-NqeZl-45">
          <mxGeometry relative="1" as="geometry">
            <mxPoint x="645" y="908.5" as="targetPoint" />
          </mxGeometry>
        </mxCell>
        <mxCell id="4wXb9z_P3IIAd_-NqeZl-57" value="" style="html=1;points=[];perimeter=orthogonalPerimeter;" vertex="1" parent="1">
          <mxGeometry x="425" y="970" width="10" height="80" as="geometry" />
        </mxCell>
        <mxCell id="4wXb9z_P3IIAd_-NqeZl-58" value="complete task" style="html=1;verticalAlign=bottom;endArrow=block;entryX=0;entryY=0;rounded=0;" edge="1" target="4wXb9z_P3IIAd_-NqeZl-57" parent="1" source="4wXb9z_P3IIAd_-NqeZl-39">
          <mxGeometry relative="1" as="geometry">
            <mxPoint x="355" y="970" as="sourcePoint" />
          </mxGeometry>
        </mxCell>
        <mxCell id="4wXb9z_P3IIAd_-NqeZl-59" value="return" style="html=1;verticalAlign=bottom;endArrow=open;dashed=1;endSize=8;exitX=0;exitY=0.95;rounded=0;" edge="1" source="4wXb9z_P3IIAd_-NqeZl-57" parent="1" target="4wXb9z_P3IIAd_-NqeZl-39">
          <mxGeometry relative="1" as="geometry">
            <mxPoint x="355" y="1046" as="targetPoint" />
          </mxGeometry>
        </mxCell>
        <mxCell id="4wXb9z_P3IIAd_-NqeZl-61" value="try to get points" style="html=1;verticalAlign=bottom;endArrow=block;entryX=0;entryY=0;rounded=0;exitX=0.977;exitY=0.236;exitDx=0;exitDy=0;exitPerimeter=0;" edge="1" target="4wXb9z_P3IIAd_-NqeZl-60" parent="1" source="4wXb9z_P3IIAd_-NqeZl-57">
          <mxGeometry relative="1" as="geometry">
            <mxPoint x="1020" y="970" as="sourcePoint" />
          </mxGeometry>
        </mxCell>
        <mxCell id="4wXb9z_P3IIAd_-NqeZl-62" value="return" style="html=1;verticalAlign=bottom;endArrow=open;dashed=1;endSize=8;exitX=0;exitY=0.95;rounded=0;" edge="1" source="4wXb9z_P3IIAd_-NqeZl-60" parent="1" target="4wXb9z_P3IIAd_-NqeZl-57">
          <mxGeometry relative="1" as="geometry">
            <mxPoint x="1020" y="1046" as="targetPoint" />
          </mxGeometry>
        </mxCell>
        <mxCell id="4wXb9z_P3IIAd_-NqeZl-63" value="&lt;span style=&quot;color: rgb(50, 50, 50); font-family: 微软雅黑; font-size: 13px; font-style: normal; font-variant-ligatures: normal; font-variant-caps: normal; font-weight: 400; letter-spacing: normal; orphans: 2; text-align: center; text-indent: 0px; text-transform: none; widows: 2; word-spacing: 0px; -webkit-text-stroke-width: 0px; background-color: rgba(255, 255, 255, 0.01); text-decoration-thickness: initial; text-decoration-style: initial; text-decoration-color: initial; float: none; display: inline !important;&quot;&gt;用户完成邀请活动任务？&lt;/span&gt;" style="text;html=1;strokeColor=none;fillColor=none;align=center;verticalAlign=middle;whiteSpace=wrap;rounded=0;" vertex="1" parent="1">
          <mxGeometry x="40" y="1120" width="150" height="25" as="geometry" />
        </mxCell>
        <mxCell id="4wXb9z_P3IIAd_-NqeZl-64" value="User" style="shape=umlLifeline;perimeter=lifelinePerimeter;whiteSpace=wrap;html=1;container=1;collapsible=0;recursiveResize=0;outlineConnect=0;" vertex="1" parent="1">
          <mxGeometry x="170" y="1188" width="100" height="302" as="geometry" />
        </mxCell>
        <mxCell id="4wXb9z_P3IIAd_-NqeZl-65" value="" style="shape=umlActor;verticalLabelPosition=bottom;verticalAlign=top;html=1;" vertex="1" parent="1">
          <mxGeometry x="210" y="1133" width="20" height="40" as="geometry" />
        </mxCell>
        <mxCell id="4wXb9z_P3IIAd_-NqeZl-72" value="EventTask" style="shape=umlLifeline;perimeter=lifelinePerimeter;whiteSpace=wrap;html=1;container=1;collapsible=0;recursiveResize=0;outlineConnect=0;" vertex="1" parent="1">
          <mxGeometry x="380" y="1188" width="100" height="302" as="geometry" />
        </mxCell>
        <mxCell id="4wXb9z_P3IIAd_-NqeZl-82" value="" style="html=1;points=[];perimeter=orthogonalPerimeter;" vertex="1" parent="4wXb9z_P3IIAd_-NqeZl-72">
          <mxGeometry x="45" y="142" width="10" height="148" as="geometry" />
        </mxCell>
        <mxCell id="4wXb9z_P3IIAd_-NqeZl-83" value="friend accept invitation" style="html=1;verticalAlign=bottom;endArrow=block;entryX=0;entryY=0;rounded=0;" edge="1" parent="4wXb9z_P3IIAd_-NqeZl-72" target="4wXb9z_P3IIAd_-NqeZl-82">
          <mxGeometry relative="1" as="geometry">
            <mxPoint x="-160.5" y="142" as="sourcePoint" />
          </mxGeometry>
        </mxCell>
        <mxCell id="4wXb9z_P3IIAd_-NqeZl-91" value="" style="html=1;points=[];perimeter=orthogonalPerimeter;" vertex="1" parent="4wXb9z_P3IIAd_-NqeZl-72">
          <mxGeometry x="45" y="72" width="10" height="38" as="geometry" />
        </mxCell>
        <mxCell id="4wXb9z_P3IIAd_-NqeZl-74" value="PointService" style="shape=umlLifeline;perimeter=lifelinePerimeter;whiteSpace=wrap;html=1;container=1;collapsible=0;recursiveResize=0;outlineConnect=0;" vertex="1" parent="1">
          <mxGeometry x="1050" y="1188" width="100" height="302" as="geometry" />
        </mxCell>
        <mxCell id="4wXb9z_P3IIAd_-NqeZl-75" value="" style="html=1;points=[];perimeter=orthogonalPerimeter;" vertex="1" parent="4wXb9z_P3IIAd_-NqeZl-74">
          <mxGeometry x="45" y="252" width="10" height="28" as="geometry" />
        </mxCell>
        <mxCell id="4wXb9z_P3IIAd_-NqeZl-85" value="try to get points" style="html=1;verticalAlign=bottom;endArrow=block;entryX=0;entryY=0;rounded=0;" edge="1" parent="1" source="4wXb9z_P3IIAd_-NqeZl-82" target="4wXb9z_P3IIAd_-NqeZl-75">
          <mxGeometry relative="1" as="geometry">
            <mxPoint x="780" y="1450" as="sourcePoint" />
          </mxGeometry>
        </mxCell>
        <mxCell id="4wXb9z_P3IIAd_-NqeZl-86" value="return" style="html=1;verticalAlign=bottom;endArrow=open;dashed=1;endSize=8;exitX=0;exitY=0.95;rounded=0;" edge="1" parent="1" source="4wXb9z_P3IIAd_-NqeZl-75" target="4wXb9z_P3IIAd_-NqeZl-82">
          <mxGeometry relative="1" as="geometry">
            <mxPoint x="770" y="1500" as="targetPoint" />
          </mxGeometry>
        </mxCell>
        <mxCell id="4wXb9z_P3IIAd_-NqeZl-89" value="UserEvent" style="shape=umlLifeline;perimeter=lifelinePerimeter;whiteSpace=wrap;html=1;container=1;collapsible=0;recursiveResize=0;outlineConnect=0;" vertex="1" parent="1">
          <mxGeometry x="600" y="1188" width="100" height="302" as="geometry" />
        </mxCell>
        <mxCell id="4wXb9z_P3IIAd_-NqeZl-95" value="" style="html=1;points=[];perimeter=orthogonalPerimeter;" vertex="1" parent="4wXb9z_P3IIAd_-NqeZl-89">
          <mxGeometry x="45" y="152" width="10" height="28" as="geometry" />
        </mxCell>
        <mxCell id="4wXb9z_P3IIAd_-NqeZl-92" value="invitation info" style="html=1;verticalAlign=bottom;endArrow=block;entryX=0;entryY=0;rounded=0;" edge="1" target="4wXb9z_P3IIAd_-NqeZl-91" parent="1" source="4wXb9z_P3IIAd_-NqeZl-64">
          <mxGeometry relative="1" as="geometry">
            <mxPoint x="355" y="1260" as="sourcePoint" />
            <Array as="points" />
          </mxGeometry>
        </mxCell>
        <mxCell id="4wXb9z_P3IIAd_-NqeZl-93" value="return" style="html=1;verticalAlign=bottom;endArrow=open;dashed=1;endSize=8;exitX=0;exitY=0.95;rounded=0;" edge="1" source="4wXb9z_P3IIAd_-NqeZl-91" parent="1" target="4wXb9z_P3IIAd_-NqeZl-64">
          <mxGeometry relative="1" as="geometry">
            <mxPoint x="355" y="1336" as="targetPoint" />
          </mxGeometry>
        </mxCell>
        <mxCell id="4wXb9z_P3IIAd_-NqeZl-96" value="join event?" style="html=1;verticalAlign=bottom;endArrow=block;entryX=0;entryY=0;rounded=0;" edge="1" target="4wXb9z_P3IIAd_-NqeZl-95" parent="1" source="4wXb9z_P3IIAd_-NqeZl-82">
          <mxGeometry relative="1" as="geometry">
            <mxPoint x="575" y="1340" as="sourcePoint" />
          </mxGeometry>
        </mxCell>
        <mxCell id="4wXb9z_P3IIAd_-NqeZl-97" value="return" style="html=1;verticalAlign=bottom;endArrow=open;dashed=1;endSize=8;exitX=0;exitY=0.95;rounded=0;" edge="1" source="4wXb9z_P3IIAd_-NqeZl-95" parent="1" target="4wXb9z_P3IIAd_-NqeZl-82">
          <mxGeometry relative="1" as="geometry">
            <mxPoint x="575" y="1416" as="targetPoint" />
          </mxGeometry>
        </mxCell>
        <mxCell id="4wXb9z_P3IIAd_-NqeZl-98" value="Invitation" style="shape=umlLifeline;perimeter=lifelinePerimeter;whiteSpace=wrap;html=1;container=1;collapsible=0;recursiveResize=0;outlineConnect=0;" vertex="1" parent="1">
          <mxGeometry x="790" y="1188" width="100" height="300" as="geometry" />
        </mxCell>
        <mxCell id="4wXb9z_P3IIAd_-NqeZl-99" value="" style="html=1;points=[];perimeter=orthogonalPerimeter;" vertex="1" parent="4wXb9z_P3IIAd_-NqeZl-98">
          <mxGeometry x="45" y="202" width="10" height="30" as="geometry" />
        </mxCell>
        <mxCell id="4wXb9z_P3IIAd_-NqeZl-84" value="return" style="html=1;verticalAlign=bottom;endArrow=open;dashed=1;endSize=8;exitX=0;exitY=0.95;rounded=0;" edge="1" parent="1" source="4wXb9z_P3IIAd_-NqeZl-82" target="4wXb9z_P3IIAd_-NqeZl-64">
          <mxGeometry relative="1" as="geometry">
            <mxPoint x="219.63043478260875" y="1451.6" as="targetPoint" />
          </mxGeometry>
        </mxCell>
        <mxCell id="4wXb9z_P3IIAd_-NqeZl-100" value="create invitation relation" style="html=1;verticalAlign=bottom;endArrow=block;rounded=0;" edge="1" parent="1" source="4wXb9z_P3IIAd_-NqeZl-82" target="4wXb9z_P3IIAd_-NqeZl-99">
          <mxGeometry width="80" relative="1" as="geometry">
            <mxPoint x="460" y="1390" as="sourcePoint" />
            <mxPoint x="630" y="1460" as="targetPoint" />
            <Array as="points">
              <mxPoint x="830" y="1390" />
            </Array>
          </mxGeometry>
        </mxCell>
        <mxCell id="4wXb9z_P3IIAd_-NqeZl-101" value="return" style="html=1;verticalAlign=bottom;endArrow=open;dashed=1;endSize=8;rounded=0;" edge="1" parent="1" source="4wXb9z_P3IIAd_-NqeZl-99" target="4wXb9z_P3IIAd_-NqeZl-82">
          <mxGeometry relative="1" as="geometry">
            <mxPoint x="840" y="1420" as="sourcePoint" />
            <mxPoint x="450" y="1420" as="targetPoint" />
            <Array as="points">
              <mxPoint x="640" y="1410" />
              <mxPoint x="440" y="1410" />
            </Array>
          </mxGeometry>
        </mxCell>
      </root>
    </mxGraphModel>
  </diagram>
</mxfile>
